<?xml version="1.0" encoding="UTF-8"?>
<svg id="Layer_1" xmlns="http://www.w3.org/2000/svg" version="1.1" xmlns:xlink="http://www.w3.org/1999/xlink" viewBox="0 0 3710 3710">
  <!-- Generator: Adobe Illustrator 29.5.1, SVG Export Plug-In . SVG Version: 2.1.0 Build 141)  -->
  <defs>
    <style>
      .st0 {
        fill: url(#linear-gradient2);
      }

      .st1 {
        fill: url(#linear-gradient34);
      }

      .st2 {
        fill: url(#linear-gradient33);
      }

      .st2, .st3, .st4, .st5, .st6, .st7, .st8, .st9 {
        isolation: isolate;
      }

      .st2, .st3, .st4, .st6, .st7, .st8, .st9 {
        opacity: .3;
      }

      .st10 {
        fill: url(#linear-gradient10);
      }

      .st11 {
        fill: url(#linear-gradient32);
      }

      .st12 {
        fill: url(#linear-gradient21);
      }

      .st13 {
        fill: url(#linear-gradient37);
      }

      .st14 {
        fill: url(#linear-gradient27);
      }

      .st15, .st3, .st5 {
        fill: #fff;
      }

      .st16 {
        fill: url(#linear-gradient1);
      }

      .st17 {
        fill: url(#linear-gradient9);
      }

      .st18 {
        fill: url(#linear-gradient18);
      }

      .st19 {
        fill: url(#linear-gradient23);
      }

      .st20 {
        fill: url(#linear-gradient43);
      }

      .st21 {
        fill: url(#linear-gradient8);
      }

      .st22 {
        fill: url(#linear-gradient11);
      }

      .st23 {
        fill: url(#linear-gradient16);
      }

      .st24 {
        fill: url(#linear-gradient24);
      }

      .st4 {
        fill: url(#linear-gradient15);
      }

      .st25 {
        fill: url(#linear-gradient30);
      }

      .st26 {
        fill: url(#linear-gradient22);
      }

      .st27 {
        fill: url(#linear-gradient29);
      }

      .st28 {
        fill: url(#linear-gradient19);
      }

      .st29 {
        fill: url(#linear-gradient12);
      }

      .st30 {
        fill: url(#linear-gradient42);
      }

      .st31 {
        fill: url(#linear-gradient28);
      }

      .st5 {
        opacity: .5;
      }

      .st6 {
        fill: url(#linear-gradient26);
      }

      .st32 {
        fill: url(#linear-gradient40);
      }

      .st33 {
        fill: url(#linear-gradient7);
      }

      .st34 {
        fill: url(#linear-gradient20);
      }

      .st35 {
        fill: url(#linear-gradient4);
      }

      .st36 {
        fill: url(#linear-gradient31);
      }

      .st37 {
        fill: url(#linear-gradient14);
      }

      .st38 {
        fill: url(#linear-gradient5);
      }

      .st39 {
        fill: url(#linear-gradient3);
      }

      .st40 {
        fill: url(#linear-gradient38);
      }

      .st41 {
        fill: url(#linear-gradient25);
      }

      .st7 {
        fill: url(#linear-gradient36);
      }

      .st42 {
        fill: url(#linear-gradient17);
      }

      .st43 {
        fill: url(#linear-gradient6);
      }

      .st8 {
        fill: url(#linear-gradient35);
      }

      .st9 {
        fill: url(#linear-gradient39);
      }

      .st44 {
        fill: url(#linear-gradient13);
      }

      .st45 {
        fill: url(#linear-gradient);
      }

      .st46 {
        fill: url(#linear-gradient41);
      }

      .st47 {
        fill: #f4f7fa;
      }
    </style>
    <linearGradient id="linear-gradient" x1="2210" y1="-1035.3" x2="1787.5" y2="572.3" gradientTransform="translate(0 2686)" gradientUnits="userSpaceOnUse">
      <stop offset="0" stop-color="#ff9085"/>
      <stop offset="1" stop-color="#fb6fbb"/>
    </linearGradient>
    <linearGradient id="linear-gradient1" x1="2150.8" y1="-536" x2="1215.2" y2="575.8" gradientTransform="translate(473.1 3050) rotate(-6.6)" gradientUnits="userSpaceOnUse">
      <stop offset="0" stop-color="#e38ddd"/>
      <stop offset="1" stop-color="#9571f6"/>
    </linearGradient>
    <linearGradient id="linear-gradient2" x1="3322.5" y1="-1649.1" x2="1489.8" y2="854.4" gradientTransform="translate(0 2686)" gradientUnits="userSpaceOnUse">
      <stop offset="0" stop-color="#444b8c"/>
      <stop offset="1" stop-color="#3e4177"/>
    </linearGradient>
    <linearGradient id="linear-gradient3" x1="2437" y1="-1856.7" x2="856" y2="303" gradientTransform="translate(0 2686)" gradientUnits="userSpaceOnUse">
      <stop offset="0" stop-color="#444b8c"/>
      <stop offset="1" stop-color="#3e4177"/>
    </linearGradient>
    <linearGradient id="linear-gradient4" x1="2671.5" y1="-1726" x2="1050.7" y2="488.1" gradientTransform="translate(0 2686)" gradientUnits="userSpaceOnUse">
      <stop offset="0" stop-color="#444b8c"/>
      <stop offset="1" stop-color="#3e4177"/>
    </linearGradient>
    <linearGradient id="linear-gradient5" x1="2899.3" y1="-1611" x2="1239.2" y2="656.8" gradientTransform="translate(0 2686)" gradientUnits="userSpaceOnUse">
      <stop offset="0" stop-color="#444b8c"/>
      <stop offset="1" stop-color="#3e4177"/>
    </linearGradient>
    <linearGradient id="linear-gradient6" x1="3309" y1="-1495.4" x2="1593.3" y2="848.3" gradientTransform="translate(0 2686)" gradientUnits="userSpaceOnUse">
      <stop offset="0" stop-color="#aa80f9"/>
      <stop offset="1" stop-color="#6165d7"/>
    </linearGradient>
    <linearGradient id="linear-gradient7" x1="2523.2" y1="-1894.5" x2="942.3" y2="265.1" gradientTransform="translate(0 2686)" gradientUnits="userSpaceOnUse">
      <stop offset="0" stop-color="#aa80f9"/>
      <stop offset="1" stop-color="#6165d7"/>
    </linearGradient>
    <linearGradient id="linear-gradient8" x1="2756.5" y1="-1764.3" x2="1136.1" y2="449.2" gradientTransform="translate(0 2686)" gradientUnits="userSpaceOnUse">
      <stop offset="0" stop-color="#aa80f9"/>
      <stop offset="1" stop-color="#6165d7"/>
    </linearGradient>
    <linearGradient id="linear-gradient9" x1="2985.6" y1="-1650.5" x2="1323.5" y2="619.9" gradientTransform="translate(0 2686)" gradientUnits="userSpaceOnUse">
      <stop offset="0" stop-color="#aa80f9"/>
      <stop offset="1" stop-color="#6165d7"/>
    </linearGradient>
    <linearGradient id="linear-gradient10" x1="-1025.2" y1="-1895" x2="-807.6" y2="-1895" gradientTransform="translate(1965.2 2686)" gradientUnits="userSpaceOnUse">
      <stop offset="0" stop-color="#ffc444"/>
      <stop offset="1" stop-color="#f36f56"/>
    </linearGradient>
    <linearGradient id="linear-gradient11" x1="-1025.2" y1="-1895" x2="-807.6" y2="-1895" gradientTransform="translate(1965.2 2686)" gradientUnits="userSpaceOnUse">
      <stop offset="0" stop-color="#ffc444"/>
      <stop offset="1" stop-color="#f36f56"/>
    </linearGradient>
    <linearGradient id="linear-gradient12" x1="-217.7" y1="-1372.4" x2="216.7" y2="-1372.4" gradientTransform="translate(963.6 2686)" gradientUnits="userSpaceOnUse">
      <stop offset="0" stop-color="#aa80f9"/>
      <stop offset="1" stop-color="#6165d7"/>
    </linearGradient>
    <linearGradient id="linear-gradient13" x1="1199.1" y1="-1280.5" x2="679" y2="-1571.5" gradientTransform="translate(0 2686)" gradientUnits="userSpaceOnUse">
      <stop offset="0" stop-color="#311944"/>
      <stop offset="1" stop-color="#a03976"/>
    </linearGradient>
    <linearGradient id="linear-gradient14" x1="7076.2" y1="-1940.7" x2="7095" y2="-1602.7" gradientTransform="translate(8250 1584.4) rotate(163) scale(1 -1)" gradientUnits="userSpaceOnUse">
      <stop offset="0" stop-color="#444b8c"/>
      <stop offset="1" stop-color="#26264f"/>
    </linearGradient>
    <linearGradient id="linear-gradient15" x1="-217.8" y1="-1356.2" x2="216.6" y2="-1356.2" gradientTransform="translate(963.6 2686)" gradientUnits="userSpaceOnUse">
      <stop offset="0" stop-color="#311944"/>
      <stop offset="1" stop-color="#a03976"/>
    </linearGradient>
    <linearGradient id="linear-gradient16" x1="7071.1" y1="-1761.8" x2="7061.1" y2="-2218.2" gradientTransform="translate(8250 1584.4) rotate(163) scale(1 -1)" gradientUnits="userSpaceOnUse">
      <stop offset="0" stop-color="#ffc444"/>
      <stop offset="1" stop-color="#f36f56"/>
    </linearGradient>
    <linearGradient id="linear-gradient17" x1="831.8" y1="-961.6" x2="1457.3" y2="-1639.9" gradientTransform="translate(0 2686)" gradientUnits="userSpaceOnUse">
      <stop offset="0" stop-color="#311944"/>
      <stop offset="1" stop-color="#a03976"/>
    </linearGradient>
    <linearGradient id="linear-gradient18" x1="1114.2" y1="-2386" x2="599.1" y2="-1954.6" gradientTransform="translate(873.3 2836.5) rotate(-2.9)" gradientUnits="userSpaceOnUse">
      <stop offset="0" stop-color="#444b8c"/>
      <stop offset="1" stop-color="#26264f"/>
    </linearGradient>
    <linearGradient id="linear-gradient19" x1="4275.7" y1="-1628.1" x2="4694.1" y2="-2004.2" gradientTransform="translate(5720.7 2686) rotate(-180) scale(1 -1)" gradientUnits="userSpaceOnUse">
      <stop offset="0" stop-color="#ffc444"/>
      <stop offset="1" stop-color="#f36f56"/>
    </linearGradient>
    <linearGradient id="linear-gradient20" x1="-1448.7" y1="3354.7" x2="-1571.2" y2="3507" gradientTransform="translate(5010.3 1324) rotate(75.2)" gradientUnits="userSpaceOnUse">
      <stop offset="0" stop-color="#311944"/>
      <stop offset="1" stop-color="#a03976"/>
    </linearGradient>
    <linearGradient id="linear-gradient21" x1="4480.8" y1="-2124.7" x2="4471.4" y2="-2051.4" gradientTransform="translate(5720.7 2686) rotate(-180) scale(1 -1)" gradientUnits="userSpaceOnUse">
      <stop offset="0" stop-color="#311944"/>
      <stop offset="1" stop-color="#a03976"/>
    </linearGradient>
    <linearGradient id="linear-gradient22" x1="4525.1" y1="-2141.1" x2="4525.1" y2="-2127.4" gradientTransform="translate(5720.7 2686) rotate(-180) scale(1 -1)" gradientUnits="userSpaceOnUse">
      <stop offset="0" stop-color="#311944"/>
      <stop offset="1" stop-color="#a03976"/>
    </linearGradient>
    <linearGradient id="linear-gradient23" x1="7204.4" y1="-308.7" x2="7179.3" y2="-344.3" gradientTransform="translate(3099.7 7604.7) rotate(-103.2)" gradientUnits="userSpaceOnUse">
      <stop offset="0" stop-color="#aa80f9"/>
      <stop offset="1" stop-color="#6165d7"/>
    </linearGradient>
    <linearGradient id="linear-gradient24" x1="7153.6" y1="-247.4" x2="7213.4" y2="-368.8" gradientTransform="translate(3099.7 7604.7) rotate(-103.2)" gradientUnits="userSpaceOnUse">
      <stop offset="0" stop-color="#aa80f9"/>
      <stop offset="1" stop-color="#6165d7"/>
    </linearGradient>
    <linearGradient id="linear-gradient25" x1="7121.4" y1="-329.4" x2="7251.6" y2="-329.4" gradientTransform="translate(3099.7 7604.7) rotate(-103.2)" gradientUnits="userSpaceOnUse">
      <stop offset="0" stop-color="#aa80f9"/>
      <stop offset="1" stop-color="#6165d7"/>
    </linearGradient>
    <linearGradient id="linear-gradient26" x1="4289.5" y1="-1612.8" x2="4707.8" y2="-1988.9" gradientTransform="translate(5720.7 2686) rotate(-180) scale(1 -1)" gradientUnits="userSpaceOnUse">
      <stop offset="0" stop-color="#ffc444"/>
      <stop offset="1" stop-color="#f36f56"/>
    </linearGradient>
    <linearGradient id="linear-gradient27" x1="4722.3" y1="-1936" x2="4570" y2="-1719.8" gradientTransform="translate(5720.7 2686) rotate(-180) scale(1 -1)" gradientUnits="userSpaceOnUse">
      <stop offset="0" stop-color="#ffc444"/>
      <stop offset="1" stop-color="#f36f56"/>
    </linearGradient>
    <linearGradient id="linear-gradient28" x1="4650.9" y1="-1967.6" x2="4605.7" y2="-2041" gradientTransform="translate(5720.7 2686) rotate(-180) scale(1 -1)" gradientUnits="userSpaceOnUse">
      <stop offset="0" stop-color="#311944"/>
      <stop offset="1" stop-color="#a03976"/>
    </linearGradient>
    <linearGradient id="linear-gradient29" x1="4314.9" y1="-1758" x2="4297.2" y2="-2070.8" gradientTransform="translate(5720.7 2686) rotate(-180) scale(1 -1)" gradientUnits="userSpaceOnUse">
      <stop offset="0" stop-color="#ffc444"/>
      <stop offset="1" stop-color="#f36f56"/>
    </linearGradient>
    <linearGradient id="linear-gradient30" x1="3219.9" y1="-165.5" x2="3625.5" y2="-165.5" gradientTransform="translate(6124 2686) rotate(-180) scale(1 -1)" gradientUnits="userSpaceOnUse">
      <stop offset="0" stop-color="#444b8c"/>
      <stop offset="1" stop-color="#3e4177"/>
    </linearGradient>
    <linearGradient id="linear-gradient31" x1="3324.4" y1="535.7" x2="3475.9" y2="535.7" gradientTransform="translate(6124 2686) rotate(-180) scale(1 -1)" gradientUnits="userSpaceOnUse">
      <stop offset="0" stop-color="#311944"/>
      <stop offset="1" stop-color="#6b3976"/>
    </linearGradient>
    <linearGradient id="linear-gradient32" x1="3496.8" y1="270.3" x2="3443.8" y2="602" gradientTransform="translate(6124 2686) rotate(-180) scale(1 -1)" gradientUnits="userSpaceOnUse">
      <stop offset="0" stop-color="#311944"/>
      <stop offset="1" stop-color="#a03976"/>
    </linearGradient>
    <linearGradient id="linear-gradient33" x1="3219.9" y1="-165.5" x2="3625.7" y2="-165.5" gradientTransform="translate(6124 2686) rotate(-180) scale(1 -1)" gradientUnits="userSpaceOnUse">
      <stop offset="0" stop-color="#444b8c"/>
      <stop offset="1" stop-color="#3e4177"/>
    </linearGradient>
    <linearGradient id="linear-gradient34" x1="3444.7" y1="8.8" x2="3791.6" y2="8.8" gradientTransform="translate(6124 2686) rotate(-180) scale(1 -1)" gradientUnits="userSpaceOnUse">
      <stop offset="0" stop-color="#444b8c"/>
      <stop offset="1" stop-color="#3e4177"/>
    </linearGradient>
    <linearGradient id="linear-gradient35" x1="3264.5" y1="-719.2" x2="3308.3" y2="-577.2" gradientTransform="translate(6124 2686) rotate(-180) scale(1 -1)" gradientUnits="userSpaceOnUse">
      <stop offset="0" stop-color="#e38ddd"/>
      <stop offset="1" stop-color="#9571f6"/>
    </linearGradient>
    <linearGradient id="linear-gradient36" x1="3812.4" y1="-1117.9" x2="3560.6" y2="-221.2" gradientTransform="translate(6124 2686) rotate(-180) scale(1 -1)" gradientUnits="userSpaceOnUse">
      <stop offset="0" stop-color="#e38ddd"/>
      <stop offset="1" stop-color="#9571f6"/>
    </linearGradient>
    <linearGradient id="linear-gradient37" x1="2585.2" y1="-675.7" x2="2595.5" y2="-789.1" gradientTransform="translate(0 2686)" gradientUnits="userSpaceOnUse">
      <stop offset="0" stop-color="#444b8c"/>
      <stop offset="1" stop-color="#3e4177"/>
    </linearGradient>
    <linearGradient id="linear-gradient38" x1="2585.9" y1="-756" x2="2603.1" y2="-605.7" gradientTransform="translate(0 2686)" gradientUnits="userSpaceOnUse">
      <stop offset="0" stop-color="#444b8c"/>
      <stop offset="1" stop-color="#3e4177"/>
    </linearGradient>
    <linearGradient id="linear-gradient39" x1="3730.5" y1="-510.6" x2="3553.9" y2="-700.2" gradientTransform="translate(6124 2686) rotate(-180) scale(1 -1)" gradientUnits="userSpaceOnUse">
      <stop offset="0" stop-color="#444b8c"/>
      <stop offset="1" stop-color="#3e4177"/>
    </linearGradient>
    <linearGradient id="linear-gradient40" x1="3591.4" y1="-1239.9" x2="3562.2" y2="-991.2" gradientTransform="translate(6124 2686) rotate(-180) scale(1 -1)" gradientUnits="userSpaceOnUse">
      <stop offset="0" stop-color="#311944"/>
      <stop offset="1" stop-color="#a03976"/>
    </linearGradient>
    <linearGradient id="linear-gradient41" x1="3320.1" y1="-743.4" x2="3390.3" y2="-743.4" gradientTransform="translate(6124 2686) rotate(-180) scale(1 -1)" gradientUnits="userSpaceOnUse">
      <stop offset="0" stop-color="#311944"/>
      <stop offset="1" stop-color="#a03976"/>
    </linearGradient>
    <linearGradient id="linear-gradient42" x1="3931" y1="-607.5" x2="3862.7" y2="-781" gradientTransform="translate(5664 4055.9) rotate(-151.5) scale(1 -1)" gradientUnits="userSpaceOnUse">
      <stop offset="0" stop-color="#311944"/>
      <stop offset="1" stop-color="#6b3976"/>
    </linearGradient>
    <linearGradient id="linear-gradient43" x1="3565" y1="-1206.3" x2="3537.4" y2="-1137.2" gradientTransform="translate(6124 2686) rotate(-180) scale(1 -1)" gradientUnits="userSpaceOnUse">
      <stop offset="0" stop-color="#311944"/>
      <stop offset="1" stop-color="#a03976"/>
    </linearGradient>
  </defs>
  <g id="Illustration">
    <g>
      <path class="st47" d="M1136.2,617.6c-95.8,134.1,12.6,354.4-128.6,454.5-137.4,97.5-303.1-66.4-432.5,17.4-191.9,124.3-163.2,702.7,111.7,1064.7,82.7,108.9,152.2,151.6,182,274.1,63.8,263-171.9,416.5-128.7,546.7,97.2,293.1,1636.9,554.4,2265-316.8,293.3-406.9,342.8-998.4,89.3-1450.8-458.1-817.3-1743.2-890.8-1958.2-589.8h0Z"/>
      <g>
        <g>
          <path class="st45" d="M1863.1,3061.4c-44.8,15.4-452.5-513.3-424.1-1093.7,44.2-902.6,1127.5-1610,1491.9-1432.1,99.8,48.7,180.9,181.1,188.9,302.3,10.1,153-93.7,323.8-219.8,408.2-78.2,52.3-154,108.3-233.6,158.6-37.6,23.7-81.5,50.6-79,82.4,2.5,31.4,47.9,38.1,89.3,75.6,61.9,56,94,162.2,68.9,231.8-37.2,103-202.5,133.2-323.7,155.4-151,27.6-226.2,4.3-307.9,72.1-43.8,36.3-84.6,94.8-68.8,125.6,23,44.8,149.9-1,186.9,56.7,8.3,12.9,15,35.5-.3,82.6-66.5,205-343.7,240.5-372.6,419.6-6,37.2,6.6,31.9,9.8,194.2,2.1,105.2,3.1,157.8-6,161v-.3Z"/>
          <path class="st3" d="M1848.3,2974.6c-15.8,3.1-229.7-420.7-180.3-911.9,83-825,878.7-1538.7,1190.1-1416.8,123.8,48.5,206.5,243,159.7,360.6-82.7,207.9-554.3,137.3-628.5,365.8-27.6,84.8,31.9,111.5,0,200.9-72.3,202.6-414.7,170.3-448.2,319.4-26,115.7,170.3,178.1,159.7,334.9-9.1,133.6-155.9,149.2-237,329.7-92.6,206-4.4,415.1-15.5,417.3h0Z"/>
        </g>
        <path class="st16" d="M1988.4,3069c-52.1-3.2-198.5-497.4,8-934.8,184.1-390.1,623-679.9,954.3-592.6,112.8,29.7,271.7,118.6,276.5,229.1,4.2,95.8-108.3,187.7-189.7,228.2-132.7,66-239.1,23.7-264.5,83.8-19,44.9,20,117.1,67.9,151.2,58,41.2,99.4,5.4,153,44.5,53.8,39.2,79.8,124.6,61.5,197-19.5,77-82.8,113.6-108.3,128.3-41.8,24.1-85.6,33.3-166.4,34.5-136.5,2-181.2-21.8-260.9-24.9-147.8-5.8-291.9,64.1-377.5,148.8-137.3,135.9-122.9,308.9-153.9,307h0Z"/>
        <path class="st5" d="M1987.4,3000.4c-10.3-1.8-80-566.1,278.2-984,204.3-238.4,564.4-447.6,767.6-345.2,56.4,28.4,133.4,97.4,123.6,159.7-8.3,53.1-79.7,82.4-170,118.5-194.8,77.8-282.4,47.3-314.3,108.2-34.9,66.7,28.1,183.8,97.9,247.3,87.2,79.3,177.9,68.1,190.6,123.6,11.1,48.2-44.7,112-103,144.3-125.8,69.5-219.6-32.3-458.5-10.3-77.1,7.1-158.4,14.6-234,66.4-174.1,119.2-171.2,372.7-178.1,371.5h0Z"/>
      </g>
      <g>
        <path class="st0" d="M2118,2940c-75.2,99.6-37.9,278.5-166.2,262.2-142.1-18-254.5-102-254.5-230.5s96.3-238.4,213.4-245.4c115.2-6.9,337.8,40.9,207.3,213.7Z"/>
        <path class="st39" d="M1894.5,1068.1c-453.1-25.9-893,135.1-1248.9,434-75.1,63.1-80.5,177.8-10.3,248.8l7,7.1c61.8,62.6,199.9,103.5,314.2,10.5,297.9-242.5,561.7-393.2,938-380,357.7,12.6,669.5,163.5,899.8,396.6,49.3,49.9,207.6,46.3,252.8-6.6l-79.7-5.9c50.5-59,46.6-156.1-7.5-212.4-270.3-280.8-638.9-467.7-1065.4-492.1h0Z"/>
        <path class="st35" d="M1894.5,1601.9c-310.1-6.3-606.5,108.5-847.7,310.2-73.7,61.6-78.4,176-11.2,244l1.1,1.2c58.4,59.1,180.1,96,292.8,10.7,191.4-144.7,327.3-252.6,564.9-252.9,230.1-.3,435,85.7,592.2,226.8,52.7,47.3,210.9,48.7,257.9-6.3l-1.1-17.9c53.2-62.2-31.5-152.6-90.1-207.2-199.3-185.7-461.6-302.6-758.9-308.7h.1Z"/>
        <path class="st38" d="M1418.8,2544.2c54.9,55.6,222.2,58.4,286,11,79.4-59,90.3-95.2,189.7-99,98-3.8,188.1,24.2,262.6,74.9,58.8,40,220.3,31.8,269-25.1l-84.6-2.3c59.3-69.2,50-179.8-19.4-231.2-119.2-88.2-266-139.3-427.6-136.6-165.3,2.7-322.1,61.2-454.4,160.1-79.2,59.2-89.9,178.8-22,247.5l.7.7h0Z"/>
      </g>
      <g>
        <path class="st43" d="M2215.1,2956.5c0,124.8-92.1,234.4-207.3,244.9-117.1,10.7-213.4-84.7-213.4-213.2s96.3-238.4,213.4-245.4c115.2-6.9,207.3,88.8,207.3,213.7Z"/>
        <path class="st33" d="M2007.8,1050.2c-453.1-25.9-893,135.1-1248.9,434-75.1,63.1-80.5,177.8-10.3,248.8l7,7.1c61.8,62.6,160.2,67.6,225,11.1,289.6-252.3,651-393.9,1027.3-380.7,357.7,12.6,669.5,163.5,899.8,396.6,49.3,49.9,122.7,46.4,168-6.5l5.1-5.9c50.5-59,46.6-156.1-7.5-212.4-270.3-280.8-638.9-467.7-1065.4-492.1h-.1Z"/>
        <path class="st21" d="M2007.8,1584c-310.1-6.3-606.5,108.5-847.7,310.2-73.7,61.6-78.4,176-11.2,244l1.1,1.2c58.4,59.1,149.8,60.5,212.9,6.4,182.1-156.3,407.3-248.3,644.9-248.6,230.1-.3,435,85.7,592.2,226.8,52.7,47.3,127.8,42.8,174.8-12.1l.9-1.1c53.2-62.2,49.5-163.6-9-218.1-199.3-185.7-461.6-302.6-758.9-308.7h0Z"/>
        <path class="st17" d="M1532.1,2526.3c54.9,55.6,139.4,58.1,203.2,10.7,79.4-59,173.1-94.9,272.5-98.8,98-3.8,188.1,24.2,262.6,74.9,58.8,40,135,30.2,183.8-26.7l.6-.7c59.3-69.2,50-179.8-19.4-231.2-119.2-88.2-266-139.3-427.6-136.6-165.3,2.7-322.1,61.2-454.4,160.1-79.2,59.2-89.9,178.8-22,247.5l.7.7h0Z"/>
      </g>
      <g>
        <path class="st10" d="M1113.9,660.5c-17.8-1.3-17,46.4-67.2,87-44.9,36.3-78,24.4-96.9,56.3-18.6,31.4-9.8,82.5,17.8,104.8,40.4,32.6,129.9,0,168-59.3,48.8-75.8,5-186.8-21.7-188.8h0Z"/>
        <path class="st22" d="M1113.9,660.5c-17.8-1.3-17,46.4-67.2,87-44.9,36.3-78,24.4-96.9,56.3-18.6,31.4-9.8,82.5,17.8,104.8,40.4,32.6,129.9,0,168-59.3,48.8-75.8,5-186.8-21.7-188.8h0Z"/>
        <path class="st29" d="M1100,1070c-145.3,35.3-240.9,91.9-296.8,131.9-30.3,21.7-44.3,35.2-51.8,55-43,112.4,178,282.4,201.6,300.2,10.3-24,20.6-48,30.9-72-22.8-125.4-60.9-164.7-92.7-176.4-8.9-3.3-23.8-6.8-23.6-11,.7-10,84.7,4.2,164.9-25.1,80-29.3,160.4-103.4,146.1-152.3-2.6-8.9-13.6-34.8-78.5-50.3h0Z"/>
        <path class="st44" d="M1100,1070c-145.3,35.3-240.9,91.9-296.8,131.9-30.3,21.7-44.3,35.2-51.8,55-43,112.4,178,282.4,201.6,300.2,10.3-24,20.6-48,30.9-72-22.8-125.4-60.9-164.7-92.7-176.4-8.9-3.3-23.8-6.8-23.6-11,.7-10,84.7,4.2,164.9-25.1,80-29.3,160.4-103.4,146.1-152.3-2.6-8.9-13.6-34.8-78.5-50.3h0Z"/>
        <path class="st37" d="M959.1,1891.8s13.5,4.8,13.6,15.5c0,10.7-13.7,57.8-28.6,74.5-14.9,16.7-16.3-8.2-15.3-24.3.9-16.1,4.8-52.1,8.5-59.1s21.9-6.7,21.9-6.7h-.1Z"/>
        <path class="st4" d="M915.7,1234.4c-26.4-.5-88.2-5.4-104.7,25.1-13.7,25.5,10.3,64.2,25.1,87.9,40.2,64.7,79.3,71.3,106.8,111,10.6,15.4,20.3,36.8,23.4,67.5,5.8-13.6,11.7-27.2,17.5-40.8-22.8-125.4-60.9-164.7-92.7-176.4-8.9-3.3-23.8-6.8-23.6-11,.7-10,84.7,4.2,164.9-25.1,72.9-26.7,146-90.6,147.5-138.8-115.5,82.8-202.4,101.8-264.2,100.5h0Z"/>
        <path class="st23" d="M966.9,1846.4c-.8,16.5-2.2,30.3-3.5,40.5-2.8,22.6-5.4,31.6-8.9,39.8-3.1,7.1-10.7,22.6-14.4,21.5s0-18.3,3-66.1c.4-6.9,1.7-29,1.7-29h0l22-6.7h.1Z"/>
        <path class="st42" d="M1183.7,1079.5c-83.7,50.5-138,107.8-169.6,146.6-37.3,45.7-94,115.3-114.5,219.1-10.9,55.3-5.6,104.9,5.7,201.8,11.1,96.3,27.1,174.7,39.6,228.2,6.4,2.6,12.9,5.2,19.3,7.8,17.2-31.7,39.8-81.8,47.9-145.9,13.2-104.9-26-138.2-7.2-212.6,16.3-64.4,63.6-104,158.1-183,77.7-64.9,149.3-103.5,175.9-184.4,4.5-13.8,8.4-30.6,1-46.1-15.9-33.3-76.6-44.9-156.2-31.4h0Z"/>
        <path class="st18" d="M1255.2,671.6c-21.7-4.7-57.5-3.7-91.5-30.6-10.3-8.1-46.6-36.7-42.2-77.6,3.9-36,38-55.4,42.2-57.7,24.2-13.3,48.3-10.3,75-6.7,34.7,4.7,46.2,14.2,70.3,20.7,59.6,16.1,79.7-17.5,139.7-14.6,76.7,3.6,83.3,60.2,147.8,61.7,72.4,1.6,86.3-69.3,157.8-81.3,99.2-16.7,249.4,90.2,246.4,213.3-1.7,71.1-54.7,152.7-122.4,177.1-39.4,14.3-82,9.7-94.1,35.4-8.6,18.3,10.8,32.3,9,64.1-2.4,41-37.7,69.8-43.4,74.4-52.9,43.1-171.5,21.3-252.5-39.7-146.1-110-124-313.1-242.1-338.6h0Z"/>
        <path class="st28" d="M1418.3,651.9c-49.2-6.1-105.9-10.7-169-11.5-133.2-1.8-152.3,15.1-157.2,27.6-9.1,23.3,6.5,35-2.4,75.7-5.3,24.3-.3,35.4-10.5,61.5-10,25.5-2.2,39.1,6.7,98.8,11.3,76.3,16.5,115.1-4.9,145.9-14.8,21.4-31.4,23.2-29.9,33.3,3.4,21.6,78.2,9.7,172.9,51.2,27.4,12,52.7,26.8,73.8,39.3,49.6,29.1,58.7,40.2,81.7,53.4,72.6,41.7,181.6,45.7,238.7-4.7,21.3-18.8,36.8-46.4,29.8-56.5-9.5-13.8-52.1,17.5-91.1-1.6-25.9-12.6-20.9-33.1-50.8-57.2-36-29-61-13.8-85.5-32.7-38.2-29.4-20.8-99.9-10.1-218,4.4-48.9,8.9-118.7,7.8-204.5h0Z"/>
        <path class="st34" d="M1274.6,726.6l-14.8-2.5s-24.9-61.6-49.1-44.2c-24.2,17.4-6.4,20.6,1.7,22.6s25.3,21.2,28.5,29.8c3.2,8.5,29,16.9,29,16.9l4.7-22.6h0Z"/>
        <path class="st12" d="M1274.1,624.5c18.2,11.3,47.6,26,50.8,30,3.2,4-89,19.8-146.4-9.2,0,0-8.9-4.9,25.7-11.9,7.4-1.5,5.9-15.8,4.9-30.6l6.9-12.8s39.9,23.2,58,34.5h0Z"/>
        <path class="st26" d="M1219.5,590.6s4.6,19.6-12.6,29.3c-15.4,8.7-41.6-26.9-36.7-40.1,1.6-4.4,7.4-10.1,13.5-12,4.3-1.3,20.4-.8,27.4,12.8,1.8-4,5.1-6.1,7.2-5.4,2.8.8,3.2,5.9,3.3,7,.3,4-1.3,7-2.1,8.4h0Z"/>
        <g>
          <g>
            <path class="st19" d="M1113.6,737.8l75.5,3.8c2.9,0,6.3-3.4,5.6-5.9l-35.3-114.2c-.6-1.9-2.5-3.2-4.6-3l-72.4,1.6c-2.4,0-3.7,4.8-3,7.1l30,107.4c.5,1.8,2.3,3.2,4.2,3.3h0Z"/>
            <path class="st24" d="M1111.7,735.1l75.9,3.6c2.9,0,4.9-1.9,4.2-4.4l-33.9-116.1c-.6-1.9-2.5-3.2-4.7-3l-72.5,4.3c-2.4,0-4,2.4-3.3,4.7l30.1,107.7c.5,1.8,2.3,3.2,4.2,3.3h0Z"/>
          </g>
          <path class="st41" d="M1150.4,666.8c-2.2,10.6-11.8,8.3-19.5,21.1-9.8,16.2-.4,30.6-9.4,36.5-2.8,1.8-7.4,2.9-15.8.7l2.2,7.7c.5,1.8,2.3,3.2,4.2,3.3l75.9,3.6c2.9,0,4.9-1.9,4.2-4.4l-33.9-116.1c-.6-1.9-2.5-3.2-4.7-3l-10.9.6c-1.3,4-2.2,8.6-2.1,13.7.3,17.5,12.4,24,9.8,36.4h0Z"/>
        </g>
        <path class="st6" d="M1187,1066c27.4,11.4,31.1,36,69.1,49.9,36.2,13.3,48.3-3.4,84.4,7.7,54.2,16.6,75,68.9,83.2,64,7.5-4.5.3-54.6-34.5-87-40-37.2-83.1-20.2-108.7-58.8-10-15-17.6-39.1-9-57.6,11.8-25.1,42.5-16.4,58.8-37.1,29.3-37.2-39.3-104.4-20.5-161.2,7.5-22.7,31.4-51.1,108.4-70.1-1,56.9-4.3,104.5-7.6,140.6-10.7,118.1-28.1,188.6,10.1,218,24.5,18.9,49.5,3.7,85.5,32.7,29.9,24.1,25,44.5,50.8,57.2,39,19.1,81.6-12.2,91.1,1.6,7,10.1-8.5,37.7-29.8,56.5-57.1,50.4-166.1,46.4-238.7,4.7-22.9-13.2-32.1-24.3-81.7-53.4-21.2-12.4-46.4-27.2-73.8-39.3-66.5-29.1-123.1-32-152.1-38.5,57.7-38.5,92.8-39.1,115.1-29.9h-.1Z"/>
        <path class="st14" d="M1097.1,686.2c20.2,11-6.6,129.7-44.5,188.8-11.2,17.4-48.1,44.3-78.1,36.6-23-5.9-35.5-55.9-30.6-88,4.4-29.2,37.3-50.5,79.1-88,41.1-36.8,62.3-55.9,74.1-49.4h0Z"/>
        <path class="st31" d="M1086.2,689.5l-4.6-14.4c-1.3-4.1.4-8.5,4.2-10.5,5.2-2.8,12.6-5.4,18.3-1,9.6,7.4-6.7,46-10.4,43-3.7-3-7.4-17.1-7.4-17.1h0Z"/>
        <path class="st27" d="M1325.2,665.6c12-22.4,59.8-22.9,90.8-15.4,85.6,20.8,173.3,133.4,140.7,231.6-2,6-24.9,71.9-78,84.4-68.8,16.2-167.9-62-216.2-211.1,4.7-11.1,9.4-22.2,14.1-33.3,18.2,18.9,45.8,46.3,81.9,76.8,44.1,37.2,78.3,60.1,79.3,58.8s-33.2-23-65.2-66.5c-20.7-28.1-29.6-50.5-35.8-66.5-12.1-31-18.1-46.6-11.5-58.8h-.1Z"/>
      </g>
      <g>
        <path class="st25" d="M2557.7,2186.4c74.8-36.5,220.8,95.8,291.8,222.6,28.3,50.5,61.5,109.8,53.4,180.4-14.5,125-153.1,234.7-344,271.3-5.4-19.2-10.7-38.4-16.1-57.6,20.9-21.7,52.1-53.1,92-89.1,61.3-55.2,73.9-58.9,76.8-76.4,9.6-57.1-137.3-104.9-189.5-205.4-44.9-86.4-21.8-217.8,35.7-245.9h0Z"/>
        <path class="st36" d="M2656,3191.2s-12.3,30.3-6.2,42.2,35.6,4.4,77.2,10.7c41.6,6.4,70.2,16.1,72.6,7.5,2.3-8.6-83.8-54.1-90.7-60.4-6.9-6.3-52.8,0-52.8,0h-.1Z"/>
        <path class="st11" d="M2667,3145.9l29.1,45.3s-13.4,13.2-36.2,8.3l-32-42.9,39.1-10.7h0Z"/>
        <path class="st2" d="M2522,2432.3c-44.9-86.4-21.8-217.8,35.7-245.9,15.1-7.4,33.1-7.8,52.7-2.9-10.3,29.9-8.3,51.5-3.2,66.8,22.8,68.3,121.2,60.5,152,138.2,19.4,49.1-11.5,73.5,16.1,112.9,28.6,40.8,75.4,34,89.8,73.7,10.8,29.6-10.5,46.5-2.3,71.4,2.3,7,6.8,13.9,14.3,20.6-50.6,91-168.3,164.9-318.3,193.6-5.4-19.2-10.7-38.4-16.1-57.6,20.9-21.7,52.1-53.1,92-89.1,61.3-55.2,73.9-58.9,76.8-76.4,9.6-57.1-137.3-104.9-189.5-205.4h0Z"/>
        <path class="st1" d="M2608.7,2213.5c-3.2,130.9-1.4,272.4,8.1,423,12.1,192.3,34.8,369,62.5,527.8-12.3,3.9-24.6,7.8-36.9,11.8-126.6-123.4-164.5-231.9-174.9-309.9-7.3-55.2,3.8-59.9-6.1-129-18.8-131.5-68-176.6-102.5-299.7-13-46.2-27.4-116-26.5-207,92.1-5.6,184.3-11.3,276.4-16.9h-.1Z"/>
        <path class="st15" d="M2699.4,1979c-2.3.5-12.3,3.8-16.2,45.5-9.5,100.5,42.8,141.2,29.9,195.8-12.4,52.3-75.5,77.7-140.4,103.9-43.4,17.5-177.6,71.5-255.7,10.7-32.9-25.6-36.5-56.4-59.9-169.9-59.6-288.3-82.6-313-57.6-375.4,43-107.2,158.2-151.5,177.3-158.9,204.3-78.7,445.6,66,540.9,232.2,12.6,21.9,87.5,152.6,34.9,214.6-31.9,37.5-105.1,43.6-153.4,18-64.6-34.2-78.3-121.4-99.8-116.5h0Z"/>
        <path class="st8" d="M2922.7,2055.3c.6,0,1.3-.1,1.9-.4,2.3-1.1,3.3-3.8,2.3-6.1-1.8-3.8-43.9-94.4-141.4-130.1-2.4-.9-5,.3-5.9,2.7-.9,2.4.4,5,2.7,5.9,93.7,34.4,135.8,124.3,136.2,125.2.8,1.7,2.4,2.7,4.2,2.7h0Z"/>
        <path class="st7" d="M2333.1,1752.8c12.9,35.1-25.8,65.5-9.2,103.6,23.8,54.6,118.2,26.6,152,80.6,40,64-51.6,169-13.8,205,17.2,16.4,37.1-4.6,87.5,6.9,71.7,16.4,93.3,73.1,126.7,64.5,10.5-2.7,23.2-12.2,33.9-41.6,4.7,16.3,6.9,31.7,2.9,48.5-12.4,52.3-75.5,77.7-140.4,103.9-43.4,17.5-177.6,71.5-255.7,10.7-32.9-25.6-36.5-56.4-59.9-169.9-59.6-288.3-82.6-313-57.6-375.4,13.7-34,34.6-61.7,57.4-83.9,49.2,10.9,69.4,28.7,76.2,47h0Z"/>
        <path class="st15" d="M2456.6,1973.1c-5.5,5-61.4,54.2-128.6,37.4-58.6-14.6-94.5-71.6-100.8-119.5-15-113.9,133.5-209.6,115.2-232.6-10.9-13.7-69.3,12.9-108.2,36.9-40.4,24.9-149.5,92.2-172.8,224.2-2,11.2-27.6,168.6,62.2,233.7,83.1,60.1,245.8,27.4,356.1-114.8-7.6-21.8-15.3-43.5-22.9-65.3h-.2Z"/>
        <path class="st13" d="M2817,1869l-66.6,212.6c-2.2,7-8.5,11.8-15.8,12.1l-358.1,12.7c-11.2.4-19.8-9.9-17.4-20.9l46.3-213.5c1.7-7.7,8.4-13.3,16.3-13.6l378.4-11.8c11.8-.4,20.5,11.1,17,22.4h0Z"/>
        <path class="st40" d="M2813.8,1876l-64.6,206.3c-2.1,6.8-8.3,11.5-15.4,11.7l-347.6,12.3c-10.9.4-19.2-9.6-16.9-20.2l44.9-207.2c1.6-7.5,8.1-12.9,15.8-13.2l367.2-11.4c11.5-.4,19.9,10.7,16.5,21.7h.1Z"/>
        <path class="st9" d="M2369.3,2086.1l42.9-197.8c7.3,17.2,16.7,25.9,25.7,30.3,25.9,12.8,46-10.2,102.5-8.1,21.6.8,65.8,2.5,93.3,31.1,25.9,26.8,14.9,54.4,31.1,92.1,8.2,19,23.4,40.6,52.7,60.8l-331.2,11.7c-10.9.4-19.2-9.6-16.9-20.2h-.1Z"/>
        <path class="st32" d="M2587.5,1610.3c-3.8,13.4,4.2,27.2,17.7,30.5,16.4,3.9,36.3,9.4,44.9,14.3,15.8,9-48.1-1.4-106.9-2.8-36.7-.9-64.1-5-79.6-8-4.1-.8-4.5-6.6-.5-7.9,14.7-4.8,38.6-11.8,58.8-14.4,25-3.1,51.8-58.3,51.8-58.3l21.4,19.5-7.7,27h.1Z"/>
        <path class="st46" d="M2800.2,1936.7l-4.1-6.6c-3.6-13.8-16.9-22.8-31-21.1l-21.4,2.6c-6.7.8-11.2,7.2-9.8,13.8,2,9.5,7.1,20.9,20.2,20.1,22.3-1.5,36.5,31,36.5,31l8.6-12c5.8-8.2,6.2-19.1.9-27.7h.1Z"/>
        <path class="st30" d="M2635.2,1582c18.5-2.7,39.2-18.3,38.8-31.1-.6-17.6-40.9-27.3-61.2-32.2-20.4-4.9-29.1-3.1-34.9,1.3-6,4.5-9.9,12.7-11.2,19.7-.7,3.8-.7,9.1,0,19.6.6,9.3.4,8.9.7,11.6.6,6.6,2.4,18.2,8.8,34.3,2.7-2.9,6.2-6.4,10.7-9.9,1.7-1.3,8.5-6.5,16.3-9.6,13.3-5.4,20.9-2.1,32.2-3.8h-.2Z"/>
        <path class="st20" d="M2566.2,1587.3s1.2,25.7,25.4,37c21.7,10.1,50.5-35.2,42.6-52.5-2.6-5.8-10.8-12.1-19.2-14-5-1.1-7.4-.2-15.4-2.2-7.4-1.9-8.9-3.6-11.8-3-3.6.7-8.2,4.8-11.6,20.8-1.8-6.2-5.7-10.4-10-10.7-.7,0-2.7.2-4.3,1.2-5.9,3.8-4.7,13.3,4.3,23.4h0Z"/>
      </g>
    </g>
  </g>
</svg>